<svg width="135" height="39" viewBox="0 0 135 39" fill="none" xmlns="http://www.w3.org/2000/svg">
<path d="M11.98 22.3862L0.307617 2.28857H6.44287L14.6631 17.4814L22.7808 2.28857H28.916L17.3975 22.3521V29H11.98V22.3862ZM30.2853 8.81689H35.3268V18.6606C35.3268 19.5949 35.4293 20.4494 35.6344 21.2241C35.8395 21.9875 36.1869 22.6426 36.6769 23.1895C37.1782 23.7363 37.839 24.1636 38.6593 24.4712C39.491 24.7674 40.5221 24.9155 41.7525 24.9155C42.3336 24.9155 42.9203 24.8529 43.5128 24.7275C44.1166 24.6022 44.692 24.4313 45.2389 24.2148C45.7857 23.987 46.2927 23.7192 46.7599 23.4116C47.2384 23.104 47.6485 22.7679 47.9903 22.4033V8.81689H53.0489V29H47.9903V27.2739C46.7485 28.0145 45.5009 28.5443 44.2477 28.8633C42.9944 29.1823 41.8038 29.3418 40.6759 29.3418C38.8302 29.3418 37.2465 29.1196 35.9249 28.6753C34.6147 28.231 33.538 27.5872 32.6949 26.7441C31.8632 25.8896 31.2537 24.8472 30.8663 23.6167C30.4789 22.3748 30.2853 20.9621 30.2853 19.3784V8.81689ZM33.1905 0.118164H50.1607V4.271H33.1905V0.118164ZM60.5363 32.418C61.1743 32.6458 61.8238 32.8338 62.4846 32.9819C63.1454 33.1414 63.7834 33.2668 64.3986 33.3579C65.0253 33.4604 65.6234 33.5288 66.1931 33.563C66.7627 33.6086 67.2697 33.6313 67.7141 33.6313C69.0585 33.6313 70.2263 33.4661 71.2175 33.1357C72.2201 32.8167 73.0518 32.3838 73.7126 31.8369C74.3848 31.29 74.8861 30.652 75.2165 29.9229C75.5469 29.2051 75.7121 28.4417 75.7121 27.6328V26.7612C75.2792 27.0575 74.7722 27.3423 74.1911 27.6157C73.6101 27.8892 72.972 28.1284 72.2771 28.3335C71.5821 28.5386 70.8415 28.7038 70.0554 28.8291C69.2806 28.9544 68.4774 29.0171 67.6457 29.0171C65.9937 29.0171 64.467 28.7721 63.0656 28.2822C61.6643 27.7809 60.4509 27.0859 59.4255 26.1973C58.4001 25.2972 57.5969 24.2205 57.0158 22.9673C56.4462 21.714 56.1613 20.3241 56.1613 18.7974C56.1613 17.2365 56.4632 15.8237 57.0671 14.5591C57.6709 13.283 58.5026 12.195 59.5622 11.2949C60.6332 10.3949 61.8978 9.69987 63.3562 9.20996C64.8145 8.72005 66.3981 8.4751 68.1071 8.4751C68.8363 8.4751 69.5598 8.52067 70.2775 8.61182C70.9953 8.70296 71.6789 8.82829 72.3283 8.98779C72.9891 9.1473 73.6044 9.34098 74.174 9.56885C74.7551 9.78532 75.2678 10.0246 75.7121 10.2866V8.83398H80.7707V26.6929C80.7707 28.5272 80.4916 30.1507 79.9333 31.5635C79.375 32.9762 78.5547 34.1611 77.4724 35.1182C76.4014 36.0866 75.0684 36.8158 73.4733 37.3057C71.8783 37.807 70.0497 38.0576 67.9875 38.0576C67.2469 38.0576 66.4779 38.0234 65.6804 37.9551C64.8828 37.8981 64.0796 37.807 63.2707 37.6816C62.4732 37.5677 61.6813 37.4253 60.8952 37.2544C60.1205 37.0949 59.3742 36.9069 58.6564 36.6904L60.5363 32.418ZM61.4763 18.7461C61.4763 19.555 61.6358 20.3184 61.9548 21.0361C62.2852 21.7425 62.7523 22.3634 63.3562 22.8989C63.96 23.423 64.6892 23.8389 65.5437 24.1465C66.3981 24.4427 67.3609 24.5908 68.4318 24.5908C69.1268 24.5908 69.8161 24.5282 70.4997 24.4028C71.1947 24.2661 71.8555 24.0781 72.4821 23.8389C73.1201 23.5996 73.7126 23.3091 74.2595 22.9673C74.8177 22.6255 75.302 22.2438 75.7121 21.8223V15.1743C75.1994 14.7642 74.6582 14.4167 74.0886 14.1318C73.5189 13.847 72.9379 13.6134 72.3454 13.4312C71.753 13.2489 71.1548 13.1178 70.551 13.0381C69.9471 12.9469 69.3604 12.9014 68.7907 12.9014C67.6286 12.9014 66.5918 13.0552 65.6804 13.3628C64.7803 13.6704 64.017 14.092 63.3903 14.6274C62.7751 15.1515 62.3023 15.7668 61.9719 16.4731C61.6415 17.1795 61.4763 17.9372 61.4763 18.7461ZM83.4729 18.8486C83.4729 17.4814 83.7521 16.1769 84.3103 14.9351C84.8686 13.6818 85.6718 12.5767 86.72 11.6196C87.7682 10.6626 89.0499 9.89925 90.5652 9.32959C92.0919 8.75993 93.8237 8.4751 95.7605 8.4751C97.686 8.4751 99.4178 8.76562 100.956 9.34668C102.505 9.91634 103.816 10.7025 104.887 11.7051C105.969 12.7077 106.795 13.8869 107.365 15.2427C107.946 16.5985 108.236 18.0511 108.236 19.6006C108.236 19.7943 108.23 20.005 108.219 20.2329C108.219 20.4494 108.208 20.6488 108.185 20.8311H89.1126C89.3291 21.4349 89.6766 21.9875 90.1551 22.4888C90.645 22.9901 91.2545 23.423 91.9837 23.7876C92.7129 24.1522 93.556 24.437 94.513 24.6421C95.47 24.8358 96.5296 24.9326 97.6917 24.9326C98.8538 24.9326 100.01 24.813 101.161 24.5737C102.312 24.3231 103.411 24.0098 104.459 23.6338L106.168 27.4961C105.507 27.8037 104.835 28.0771 104.152 28.3164C103.479 28.5443 102.773 28.738 102.033 28.8975C101.303 29.0456 100.534 29.1595 99.7254 29.2393C98.9279 29.319 98.0848 29.3589 97.1961 29.3589C94.9288 29.3589 92.9407 29.0854 91.2317 28.5386C89.5228 27.9917 88.0929 27.2454 86.9422 26.2998C85.7915 25.3542 84.9256 24.2433 84.3445 22.9673C83.7635 21.6912 83.4729 20.3184 83.4729 18.8486ZM102.87 16.8833C102.688 16.325 102.403 15.8066 102.015 15.3281C101.639 14.8382 101.167 14.4167 100.597 14.0635C100.027 13.6989 99.3665 13.4141 98.6145 13.209C97.8626 13.0039 97.0366 12.9014 96.1365 12.9014C95.1795 12.9014 94.3079 13.0096 93.5218 13.2261C92.7356 13.4425 92.0464 13.7331 91.4539 14.0977C90.8615 14.4622 90.3658 14.8838 89.9671 15.3623C89.5797 15.8408 89.2949 16.3478 89.1126 16.8833H102.87ZM111.588 8.83398H116.646V10.543C117.991 9.77962 119.273 9.24414 120.492 8.93652C121.722 8.62891 122.924 8.4751 124.098 8.4751C125.636 8.4751 127.06 8.70296 128.37 9.15869C129.68 9.60303 130.814 10.2695 131.771 11.1582C132.728 12.0469 133.474 13.1577 134.01 14.4907C134.557 15.8123 134.83 17.3447 134.83 19.0879V29H129.788V19.9082C129.788 18.8031 129.629 17.8175 129.31 16.9517C129.002 16.0744 128.552 15.3395 127.96 14.7471C127.379 14.1432 126.667 13.6875 125.824 13.3799C124.992 13.0609 124.058 12.9014 123.021 12.9014C122.474 12.9014 121.91 12.9583 121.329 13.0723C120.759 13.1862 120.195 13.3514 119.637 13.5679C119.09 13.7729 118.56 14.035 118.048 14.354C117.535 14.6616 117.068 15.0148 116.646 15.4136V29H111.588V8.83398Z" fill="#323232"/>
</svg>
